<svg width="100%" height="100%" viewBox="0 0 275 34" fill="none" xmlns="http://www.w3.org/2000/svg">
<path d="M10 0H0V10H10V0Z" fill="#D97941"/>
<path d="M10 24H0V34H10V24Z" fill="#D97941"/>
<path d="M22 12H12V22H22V12Z" fill="#D97941"/>
<path d="M34 0H24V10H34V0Z" fill="#D97941"/>
<path d="M22 0H12V10H22V0Z" fill="#D97941"/>
<path d="M10 12H0V22H10V12Z" fill="#D97941"/>
<path d="M201.035 22.5227C200.869 26.2955 199.808 29.1515 197.854 31.0909C195.899 33.0303 193.142 34 189.581 34C187.748 34 186.111 33.697 184.672 33.0909C183.232 32.4848 182.02 31.5833 181.035 30.3864C180.051 29.1894 179.293 27.7121 178.763 25.9545C178.248 24.1818 177.99 22.1439 177.99 19.8409V14.2045C177.99 11.9015 178.255 9.86364 178.785 8.09091C179.331 6.31818 180.111 4.83333 181.126 3.63636C182.142 2.43939 183.369 1.53788 184.808 0.931818C186.248 0.310606 187.869 0 189.672 0C193.278 0 196.013 1.00758 197.876 3.02273C199.755 5.03788 200.823 7.93182 201.081 11.7045H194.376C194.346 10.5227 194.24 9.53788 194.058 8.75C193.892 7.94697 193.626 7.31061 193.263 6.84091C192.899 6.37121 192.422 6.03788 191.831 5.84091C191.255 5.64394 190.535 5.54545 189.672 5.54545C188.778 5.54545 188.013 5.69697 187.376 6C186.755 6.30303 186.248 6.79545 185.854 7.47727C185.46 8.14394 185.164 9.0303 184.967 10.1364C184.785 11.2273 184.695 12.5682 184.695 14.1591V19.8409C184.695 21.3864 184.77 22.7045 184.922 23.7955C185.073 24.8864 185.338 25.7803 185.717 26.4773C186.096 27.1591 186.596 27.6591 187.217 27.9773C187.838 28.2955 188.626 28.4545 189.581 28.4545C190.399 28.4545 191.096 28.3712 191.672 28.2045C192.263 28.0227 192.748 27.7121 193.126 27.2727C193.505 26.8333 193.793 26.2273 193.99 25.4545C194.187 24.6818 194.308 23.7045 194.354 22.5227H201.035Z" fill="#D97941"/>
<path d="M227.048 19.9773C227.048 22.2955 226.76 24.3333 226.185 26.0909C225.609 27.8485 224.798 29.3106 223.753 30.4773C222.722 31.6439 221.472 32.5227 220.003 33.1136C218.548 33.7045 216.935 34 215.162 34C213.389 34 211.768 33.7045 210.298 33.1136C208.828 32.5227 207.563 31.6439 206.503 30.4773C205.457 29.3106 204.639 27.8485 204.048 26.0909C203.472 24.3333 203.185 22.2955 203.185 19.9773V14.4773C203.185 12.0985 203.472 10.0076 204.048 8.20455C204.624 6.38636 205.435 4.87121 206.48 3.65909C207.525 2.44697 208.783 1.53788 210.253 0.931818C211.722 0.310606 213.344 0 215.116 0C216.889 0 218.503 0.310606 219.957 0.931818C221.427 1.53788 222.685 2.44697 223.73 3.65909C224.791 4.87121 225.609 6.38636 226.185 8.20455C226.76 10.0076 227.048 12.0985 227.048 14.4773V19.9773ZM220.344 14.4318C220.344 12.8561 220.23 11.5152 220.003 10.4091C219.775 9.28788 219.442 8.37121 219.003 7.65909C218.563 6.94697 218.018 6.42424 217.366 6.09091C216.715 5.75758 215.965 5.59091 215.116 5.59091C214.253 5.59091 213.495 5.75758 212.844 6.09091C212.192 6.42424 211.647 6.94697 211.207 7.65909C210.768 8.37121 210.435 9.28788 210.207 10.4091C209.98 11.5152 209.866 12.8561 209.866 14.4318V19.9773C209.866 21.4773 209.98 22.7652 210.207 23.8409C210.435 24.9015 210.768 25.7727 211.207 26.4545C211.662 27.1364 212.215 27.6364 212.866 27.9545C213.533 28.2727 214.298 28.4318 215.162 28.4318C216.01 28.4318 216.753 28.2727 217.389 27.9545C218.041 27.6364 218.586 27.1364 219.025 26.4545C219.465 25.7727 219.791 24.9015 220.003 23.8409C220.23 22.7652 220.344 21.4773 220.344 19.9773V14.4318Z" fill="#D97941"/>
<path d="M230.447 33.5455V0.454545H239.197C241.106 0.454545 242.841 0.772727 244.402 1.40909C245.978 2.0303 247.318 2.93939 248.425 4.13636C249.546 5.31818 250.409 6.7803 251.015 8.52273C251.637 10.25 251.947 12.2273 251.947 14.4545V19.5909C251.947 21.8182 251.644 23.7955 251.038 25.5227C250.432 27.25 249.568 28.7121 248.447 29.9091C247.326 31.0909 245.978 31.9924 244.402 32.6136C242.826 33.2348 241.068 33.5455 239.129 33.5455H230.447ZM237.129 6.02273V28H239.129C240.311 28 241.296 27.8485 242.084 27.5455C242.872 27.2273 243.5 26.7273 243.97 26.0455C244.44 25.3636 244.773 24.4924 244.97 23.4318C245.167 22.3712 245.265 21.0909 245.265 19.5909V14.4091C245.265 12.8939 245.167 11.6061 244.97 10.5455C244.773 9.48485 244.44 8.62121 243.97 7.95455C243.5 7.28788 242.872 6.80303 242.084 6.5C241.311 6.18182 240.349 6.02273 239.197 6.02273H237.129Z" fill="#D97941"/>
<path d="M272.46 19.2273H262.051V28H274.369V33.5455H255.369V0.454545H274.324V6.02273H262.051V13.8409H272.46V19.2273Z" fill="#D97941"/>
<path d="M52 33.5455V0.454545H62.2273C63.8788 0.454545 65.3561 0.636364 66.6591 1C67.9773 1.36364 69.0909 1.92424 70 2.68182C70.9091 3.42424 71.5985 4.36364 72.0682 5.5C72.553 6.63636 72.7955 7.97727 72.7955 9.52273C72.7955 10.2803 72.7121 11.0076 72.5455 11.7045C72.3939 12.4015 72.1439 13.053 71.7955 13.6591C71.4621 14.2652 71.0303 14.8182 70.5 15.3182C69.9848 15.803 69.3636 16.2045 68.6364 16.5227C69.4848 16.7652 70.2045 17.1364 70.7955 17.6364C71.3864 18.1212 71.8636 18.6894 72.2273 19.3409C72.5909 19.9924 72.8561 20.7045 73.0227 21.4773C73.1894 22.2348 73.2727 23.0152 73.2727 23.8182C73.2727 27.0303 72.3864 29.4545 70.6136 31.0909C68.8561 32.7273 66.303 33.5455 62.9545 33.5455H52ZM58.6818 19.1591V28H62.9545C63.6061 28 64.1591 27.8939 64.6136 27.6818C65.0833 27.4697 65.4621 27.1742 65.75 26.7955C66.053 26.4015 66.2727 25.947 66.4091 25.4318C66.5455 24.9167 66.6136 24.3485 66.6136 23.7273C66.6136 22.3182 66.3485 21.2045 65.8182 20.3864C65.303 19.5682 64.4242 19.1591 63.1818 19.1591H58.6818ZM58.6818 14.2955H62.1591C63.4924 14.2955 64.4773 13.9545 65.1136 13.2727C65.7652 12.5758 66.0909 11.5606 66.0909 10.2273C66.0909 8.72727 65.7879 7.65152 65.1818 7C64.5758 6.34848 63.5909 6.02273 62.2273 6.02273H58.6818V14.2955Z" fill="#F2F2F2"/>
<path d="M86.7627 21.4545H83.4445V33.5455H76.7627V0.454545H87.4218C89.0733 0.454545 90.543 0.674242 91.8309 1.11364C93.1339 1.53788 94.2324 2.17424 95.1264 3.02273C96.0355 3.85606 96.7248 4.89394 97.1945 6.13636C97.6794 7.37879 97.9218 8.81818 97.9218 10.4545C97.9218 11.6515 97.8082 12.7348 97.5809 13.7045C97.3688 14.6591 97.0506 15.5152 96.6264 16.2727C96.2173 17.0152 95.7173 17.6667 95.1264 18.2273C94.5355 18.7879 93.8688 19.2727 93.1264 19.6818L98.9218 33.2273V33.5455H91.74L86.7627 21.4545ZM83.4445 15.8864H87.24C88.5733 15.8864 89.5733 15.447 90.24 14.5682C90.9067 13.6742 91.24 12.4848 91.24 11C91.24 10.2424 91.1642 9.56061 91.0127 8.95455C90.8764 8.33333 90.6491 7.81061 90.3309 7.38636C90.0279 6.94697 89.6339 6.61364 89.1491 6.38636C88.6642 6.14394 88.0885 6.02273 87.4218 6.02273H83.4445V15.8864Z" fill="#F2F2F2"/>
<path d="M124.412 19.9773C124.412 22.2955 124.124 24.3333 123.548 26.0909C122.972 27.8485 122.162 29.3106 121.116 30.4773C120.086 31.6439 118.836 32.5227 117.366 33.1136C115.912 33.7045 114.298 34 112.525 34C110.753 34 109.132 33.7045 107.662 33.1136C106.192 32.5227 104.927 31.6439 103.866 30.4773C102.821 29.3106 102.003 27.8485 101.412 26.0909C100.836 24.3333 100.548 22.2955 100.548 19.9773V14.4773C100.548 12.0985 100.836 10.0076 101.412 8.20455C101.988 6.38636 102.798 4.87121 103.844 3.65909C104.889 2.44697 106.147 1.53788 107.616 0.931818C109.086 0.310606 110.707 0 112.48 0C114.253 0 115.866 0.310606 117.321 0.931818C118.791 1.53788 120.048 2.44697 121.094 3.65909C122.154 4.87121 122.972 6.38636 123.548 8.20455C124.124 10.0076 124.412 12.0985 124.412 14.4773V19.9773ZM117.707 14.4318C117.707 12.8561 117.594 11.5152 117.366 10.4091C117.139 9.28788 116.806 8.37121 116.366 7.65909C115.927 6.94697 115.382 6.42424 114.73 6.09091C114.078 5.75758 113.328 5.59091 112.48 5.59091C111.616 5.59091 110.859 5.75758 110.207 6.09091C109.556 6.42424 109.01 6.94697 108.571 7.65909C108.132 8.37121 107.798 9.28788 107.571 10.4091C107.344 11.5152 107.23 12.8561 107.23 14.4318V19.9773C107.23 21.4773 107.344 22.7652 107.571 23.8409C107.798 24.9015 108.132 25.7727 108.571 26.4545C109.025 27.1364 109.578 27.6364 110.23 27.9545C110.897 28.2727 111.662 28.4318 112.525 28.4318C113.374 28.4318 114.116 28.2727 114.753 27.9545C115.404 27.6364 115.95 27.1364 116.389 26.4545C116.828 25.7727 117.154 24.9015 117.366 23.8409C117.594 22.7652 117.707 21.4773 117.707 19.9773V14.4318Z" fill="#F2F2F2"/>
<path d="M150.947 33.5455H144.265L134.493 11.8409V33.5455H127.811V0.454545H134.493L144.288 22.1818V0.454545H150.947V33.5455Z" fill="#F2F2F2"/>
<path d="M168.892 24.8636C168.892 24.2879 168.839 23.7727 168.733 23.3182C168.627 22.8636 168.399 22.4394 168.051 22.0455C167.718 21.6364 167.233 21.2424 166.596 20.8636C165.975 20.4848 165.142 20.0833 164.096 19.6591C162.854 19.1894 161.665 18.6515 160.528 18.0455C159.407 17.4394 158.415 16.7273 157.551 15.9091C156.702 15.0758 156.021 14.1212 155.505 13.0455C155.005 11.9545 154.755 10.6894 154.755 9.25C154.755 7.87121 155.013 6.61364 155.528 5.47727C156.043 4.32576 156.763 3.34848 157.687 2.54545C158.627 1.74242 159.733 1.12121 161.005 0.681818C162.293 0.227273 163.71 0 165.255 0C166.846 0 168.278 0.257576 169.551 0.772727C170.839 1.27273 171.93 1.97727 172.824 2.88636C173.733 3.7803 174.43 4.85606 174.915 6.11364C175.399 7.35606 175.642 8.72727 175.642 10.2273H168.983C168.983 9.5303 168.907 8.89394 168.755 8.31818C168.619 7.72727 168.392 7.22727 168.074 6.81818C167.771 6.39394 167.377 6.06818 166.892 5.84091C166.407 5.59848 165.824 5.47727 165.142 5.47727C164.505 5.47727 163.952 5.57576 163.483 5.77273C163.028 5.9697 162.649 6.24242 162.346 6.59091C162.043 6.92424 161.816 7.32576 161.665 7.79545C161.513 8.26515 161.437 8.76515 161.437 9.29545C161.437 9.84091 161.551 10.3333 161.778 10.7727C162.021 11.2121 162.354 11.6212 162.778 12C163.218 12.3788 163.74 12.7348 164.346 13.0682C164.968 13.4015 165.649 13.7273 166.392 14.0455C167.937 14.6061 169.286 15.2273 170.437 15.9091C171.589 16.5909 172.551 17.3636 173.324 18.2273C174.096 19.0909 174.672 20.0682 175.051 21.1591C175.43 22.2348 175.619 23.4545 175.619 24.8182C175.619 26.2727 175.377 27.5682 174.892 28.7045C174.422 29.8409 173.74 30.803 172.846 31.5909C171.968 32.3636 170.899 32.9621 169.642 33.3864C168.384 33.7955 166.968 34 165.392 34C163.968 34 162.566 33.7879 161.187 33.3636C159.824 32.9242 158.604 32.2576 157.528 31.3636C156.452 30.4697 155.581 29.3409 154.915 27.9773C154.263 26.6136 153.937 24.9924 153.937 23.1136H160.642C160.642 24.1136 160.74 24.9621 160.937 25.6591C161.134 26.3561 161.43 26.9242 161.824 27.3636C162.233 27.7879 162.733 28.0985 163.324 28.2955C163.915 28.4773 164.604 28.5682 165.392 28.5682C166.028 28.5682 166.566 28.4773 167.005 28.2955C167.46 28.0985 167.824 27.8409 168.096 27.5227C168.384 27.1894 168.589 26.7955 168.71 26.3409C168.831 25.8864 168.892 25.3939 168.892 24.8636Z" fill="#F2F2F2"/>
</svg>
