<?xml version="1.0" encoding="UTF-8" standalone="no"?>
<!DOCTYPE svg PUBLIC "-//W3C//DTD SVG 1.1//EN" "http://www.w3.org/Graphics/SVG/1.1/DTD/svg11.dtd">
<svg width="100%" height="100%" viewBox="0 0 182 22" version="1.1" xmlns="http://www.w3.org/2000/svg" xmlns:xlink="http://www.w3.org/1999/xlink" xml:space="preserve" xmlns:serif="http://www.serif.com/" style="fill-rule:evenodd;clip-rule:evenodd;stroke-linejoin:round;stroke-miterlimit:2;">
    <g transform="matrix(1,0,0,1,-374.845,-834.105)">
        <g transform="matrix(0.641566,0,0,0.641566,348.54,294.487)">
            <g transform="matrix(1,0,0,1,0,799.094)">
                <path d="M248.035,64.523C247.869,68.296 246.808,71.152 244.854,73.091C242.899,75.03 240.142,76 236.581,76C234.748,76 233.111,75.697 231.672,75.091C230.232,74.485 229.02,73.583 228.035,72.386C227.051,71.189 226.293,69.712 225.763,67.955C225.248,66.182 224.99,64.144 224.99,61.841L224.99,56.205C224.99,53.902 225.255,51.864 225.785,50.091C226.331,48.318 227.111,46.833 228.126,45.636C229.142,44.439 230.369,43.538 231.808,42.932C233.248,42.311 234.869,42 236.672,42C240.278,42 243.013,43.008 244.876,45.023C246.755,47.038 247.823,49.932 248.081,53.705L241.376,53.705C241.346,52.523 241.24,51.538 241.058,50.75C240.892,49.947 240.626,49.311 240.263,48.841C239.899,48.371 239.422,48.038 238.831,47.841C238.255,47.644 237.535,47.545 236.672,47.545C235.778,47.545 235.013,47.697 234.376,48C233.755,48.303 233.248,48.795 232.854,49.477C232.46,50.144 232.164,51.03 231.967,52.136C231.785,53.227 231.695,54.568 231.695,56.159L231.695,61.841C231.695,63.386 231.77,64.704 231.922,65.796C232.073,66.886 232.338,67.78 232.717,68.477C233.096,69.159 233.596,69.659 234.217,69.977C234.838,70.296 235.626,70.455 236.581,70.455C237.399,70.455 238.096,70.371 238.672,70.205C239.263,70.023 239.748,69.712 240.126,69.273C240.505,68.833 240.793,68.227 240.99,67.455C241.187,66.682 241.308,65.705 241.354,64.523L248.035,64.523Z" style="fill:rgb(217,121,65);fill-rule:nonzero;"/>
            </g>
            <g transform="matrix(1,0,0,1,0,799.094)">
                <path d="M275.048,61.977C275.048,64.296 274.76,66.333 274.185,68.091C273.609,69.849 272.798,71.311 271.753,72.477C270.722,73.644 269.472,74.523 268.003,75.114C266.548,75.705 264.935,76 263.162,76C261.389,76 259.768,75.705 258.298,75.114C256.828,74.523 255.563,73.644 254.503,72.477C253.457,71.311 252.639,69.849 252.048,68.091C251.472,66.333 251.185,64.296 251.185,61.977L251.185,56.477C251.185,54.099 251.472,52.008 252.048,50.205C252.624,48.386 253.435,46.871 254.48,45.659C255.525,44.447 256.783,43.538 258.253,42.932C259.722,42.311 261.344,42 263.116,42C264.889,42 266.503,42.311 267.957,42.932C269.427,43.538 270.685,44.447 271.73,45.659C272.791,46.871 273.609,48.386 274.185,50.205C274.76,52.008 275.048,54.099 275.048,56.477L275.048,61.977ZM268.344,56.432C268.344,54.856 268.23,53.515 268.003,52.409C267.775,51.288 267.442,50.371 267.003,49.659C266.563,48.947 266.018,48.424 265.366,48.091C264.715,47.758 263.965,47.591 263.116,47.591C262.253,47.591 261.495,47.758 260.844,48.091C260.192,48.424 259.647,48.947 259.207,49.659C258.768,50.371 258.435,51.288 258.207,52.409C257.98,53.515 257.866,54.856 257.866,56.432L257.866,61.977C257.866,63.477 257.98,64.765 258.207,65.841C258.435,66.902 258.768,67.773 259.207,68.455C259.662,69.136 260.215,69.636 260.866,69.955C261.533,70.273 262.298,70.432 263.162,70.432C264.01,70.432 264.753,70.273 265.389,69.955C266.041,69.636 266.586,69.136 267.025,68.455C267.465,67.773 267.791,66.902 268.003,65.841C268.23,64.765 268.344,63.477 268.344,61.977L268.344,56.432Z" style="fill:rgb(217,121,65);fill-rule:nonzero;"/>
            </g>
            <g transform="matrix(1,0,0,1,0,799.094)">
                <path d="M279.447,75.546L279.447,42.455L288.197,42.455C290.106,42.455 291.841,42.773 293.402,43.409C294.978,44.03 296.318,44.939 297.425,46.136C298.546,47.318 299.409,48.78 300.015,50.523C300.637,52.25 300.947,54.227 300.947,56.455L300.947,61.591C300.947,63.818 300.644,65.796 300.038,67.523C299.432,69.25 298.568,70.712 297.447,71.909C296.326,73.091 294.978,73.992 293.402,74.614C291.826,75.235 290.068,75.546 288.129,75.546L279.447,75.546ZM286.129,48.023L286.129,70L288.129,70C289.311,70 290.296,69.849 291.084,69.546C291.872,69.227 292.5,68.727 292.97,68.046C293.44,67.364 293.773,66.492 293.97,65.432C294.167,64.371 294.265,63.091 294.265,61.591L294.265,56.409C294.265,54.894 294.167,53.606 293.97,52.545C293.773,51.485 293.44,50.621 292.97,49.955C292.5,49.288 291.872,48.803 291.084,48.5C290.311,48.182 289.349,48.023 288.197,48.023L286.129,48.023Z" style="fill:rgb(217,121,65);fill-rule:nonzero;"/>
            </g>
            <g transform="matrix(1,0,0,1,0,799.094)">
                <path d="M322.46,61.227L312.051,61.227L312.051,70L324.369,70L324.369,75.546L305.369,75.546L305.369,42.455L324.324,42.455L324.324,48.023L312.051,48.023L312.051,55.841L322.46,55.841L322.46,61.227Z" style="fill:rgb(217,121,65);fill-rule:nonzero;"/>
            </g>
            <g transform="matrix(1,0,0,1,0,799.094)">
                <path d="M95,75.546L95,42.455L105.227,42.455C106.879,42.455 108.356,42.636 109.659,43C110.977,43.364 112.091,43.924 113,44.682C113.909,45.424 114.598,46.364 115.068,47.5C115.553,48.636 115.795,49.977 115.795,51.523C115.795,52.28 115.712,53.008 115.545,53.705C115.394,54.402 115.144,55.053 114.795,55.659C114.462,56.265 114.03,56.818 113.5,57.318C112.985,57.803 112.364,58.205 111.636,58.523C112.485,58.765 113.205,59.136 113.795,59.636C114.386,60.121 114.864,60.689 115.227,61.341C115.591,61.992 115.856,62.705 116.023,63.477C116.189,64.235 116.273,65.015 116.273,65.818C116.273,69.03 115.386,71.455 113.614,73.091C111.856,74.727 109.303,75.546 105.955,75.546L95,75.546ZM101.682,61.159L101.682,70L105.955,70C106.606,70 107.159,69.894 107.614,69.682C108.083,69.47 108.462,69.174 108.75,68.796C109.053,68.402 109.273,67.947 109.409,67.432C109.545,66.917 109.614,66.349 109.614,65.727C109.614,64.318 109.348,63.205 108.818,62.386C108.303,61.568 107.424,61.159 106.182,61.159L101.682,61.159ZM101.682,56.295L105.159,56.295C106.492,56.295 107.477,55.955 108.114,55.273C108.765,54.576 109.091,53.561 109.091,52.227C109.091,50.727 108.788,49.652 108.182,49C107.576,48.349 106.591,48.023 105.227,48.023L101.682,48.023L101.682,56.295Z" style="fill:rgb(47,54,64);fill-rule:nonzero;"/>
            </g>
            <g transform="matrix(1,0,0,1,0,799.094)">
                <path d="M130.763,63.455L127.445,63.455L127.445,75.546L120.763,75.546L120.763,42.455L131.422,42.455C133.073,42.455 134.543,42.674 135.831,43.114C137.134,43.538 138.232,44.174 139.126,45.023C140.035,45.856 140.725,46.894 141.195,48.136C141.679,49.379 141.922,50.818 141.922,52.455C141.922,53.652 141.808,54.735 141.581,55.705C141.369,56.659 141.051,57.515 140.626,58.273C140.217,59.015 139.717,59.667 139.126,60.227C138.535,60.788 137.869,61.273 137.126,61.682L142.922,75.227L142.922,75.546L135.74,75.546L130.763,63.455ZM127.445,57.886L131.24,57.886C132.573,57.886 133.573,57.447 134.24,56.568C134.907,55.674 135.24,54.485 135.24,53C135.24,52.242 135.164,51.561 135.013,50.955C134.876,50.333 134.649,49.811 134.331,49.386C134.028,48.947 133.634,48.614 133.149,48.386C132.664,48.144 132.088,48.023 131.422,48.023L127.445,48.023L127.445,57.886Z" style="fill:rgb(47,54,64);fill-rule:nonzero;"/>
            </g>
            <g transform="matrix(1,0,0,1,0,799.094)">
                <path d="M169.412,61.977C169.412,64.296 169.124,66.333 168.548,68.091C167.972,69.849 167.162,71.311 166.116,72.477C165.086,73.644 163.836,74.523 162.366,75.114C160.912,75.705 159.298,76 157.525,76C155.753,76 154.132,75.705 152.662,75.114C151.192,74.523 149.927,73.644 148.866,72.477C147.821,71.311 147.003,69.849 146.412,68.091C145.836,66.333 145.548,64.296 145.548,61.977L145.548,56.477C145.548,54.099 145.836,52.008 146.412,50.205C146.988,48.386 147.798,46.871 148.844,45.659C149.889,44.447 151.147,43.538 152.616,42.932C154.086,42.311 155.707,42 157.48,42C159.253,42 160.866,42.311 162.321,42.932C163.791,43.538 165.048,44.447 166.094,45.659C167.154,46.871 167.972,48.386 168.548,50.205C169.124,52.008 169.412,54.099 169.412,56.477L169.412,61.977ZM162.707,56.432C162.707,54.856 162.594,53.515 162.366,52.409C162.139,51.288 161.806,50.371 161.366,49.659C160.927,48.947 160.382,48.424 159.73,48.091C159.078,47.758 158.328,47.591 157.48,47.591C156.616,47.591 155.859,47.758 155.207,48.091C154.556,48.424 154.01,48.947 153.571,49.659C153.132,50.371 152.798,51.288 152.571,52.409C152.344,53.515 152.23,54.856 152.23,56.432L152.23,61.977C152.23,63.477 152.344,64.765 152.571,65.841C152.798,66.902 153.132,67.773 153.571,68.455C154.025,69.136 154.578,69.636 155.23,69.955C155.897,70.273 156.662,70.432 157.525,70.432C158.374,70.432 159.116,70.273 159.753,69.955C160.404,69.636 160.95,69.136 161.389,68.455C161.828,67.773 162.154,66.902 162.366,65.841C162.594,64.765 162.707,63.477 162.707,61.977L162.707,56.432Z" style="fill:rgb(47,54,64);fill-rule:nonzero;"/>
            </g>
            <g transform="matrix(1,0,0,1,0,799.094)">
                <path d="M196.947,75.546L190.265,75.546L180.493,53.841L180.493,75.546L173.811,75.546L173.811,42.455L180.493,42.455L190.288,64.182L190.288,42.455L196.947,42.455L196.947,75.546Z" style="fill:rgb(47,54,64);fill-rule:nonzero;"/>
            </g>
            <g transform="matrix(1,0,0,1,0,799.094)">
                <path d="M215.892,66.864C215.892,66.288 215.839,65.773 215.733,65.318C215.627,64.864 215.399,64.439 215.051,64.046C214.718,63.636 214.233,63.242 213.596,62.864C212.975,62.485 212.142,62.083 211.096,61.659C209.854,61.189 208.665,60.652 207.528,60.045C206.407,59.439 205.415,58.727 204.551,57.909C203.702,57.076 203.021,56.121 202.505,55.045C202.005,53.955 201.755,52.689 201.755,51.25C201.755,49.871 202.013,48.614 202.528,47.477C203.043,46.326 203.763,45.349 204.687,44.545C205.627,43.742 206.733,43.121 208.005,42.682C209.293,42.227 210.71,42 212.255,42C213.846,42 215.278,42.258 216.551,42.773C217.839,43.273 218.93,43.977 219.824,44.886C220.733,45.78 221.43,46.856 221.915,48.114C222.399,49.356 222.642,50.727 222.642,52.227L215.983,52.227C215.983,51.53 215.907,50.894 215.755,50.318C215.619,49.727 215.392,49.227 215.074,48.818C214.771,48.394 214.377,48.068 213.892,47.841C213.407,47.599 212.824,47.477 212.142,47.477C211.505,47.477 210.952,47.576 210.483,47.773C210.028,47.97 209.649,48.242 209.346,48.591C209.043,48.924 208.816,49.326 208.665,49.795C208.513,50.265 208.437,50.765 208.437,51.295C208.437,51.841 208.551,52.333 208.778,52.773C209.021,53.212 209.354,53.621 209.778,54C210.218,54.379 210.74,54.735 211.346,55.068C211.968,55.402 212.649,55.727 213.392,56.045C214.937,56.606 216.286,57.227 217.437,57.909C218.589,58.591 219.551,59.364 220.324,60.227C221.096,61.091 221.672,62.068 222.051,63.159C222.43,64.235 222.619,65.454 222.619,66.818C222.619,68.273 222.377,69.568 221.892,70.705C221.422,71.841 220.74,72.803 219.846,73.591C218.968,74.364 217.899,74.962 216.642,75.386C215.384,75.796 213.968,76 212.392,76C210.968,76 209.566,75.788 208.187,75.364C206.824,74.924 205.604,74.258 204.528,73.364C203.452,72.47 202.581,71.341 201.915,69.977C201.263,68.614 200.937,66.992 200.937,65.114L207.642,65.114C207.642,66.114 207.74,66.962 207.937,67.659C208.134,68.356 208.43,68.924 208.824,69.364C209.233,69.788 209.733,70.099 210.324,70.296C210.915,70.477 211.604,70.568 212.392,70.568C213.028,70.568 213.566,70.477 214.005,70.296C214.46,70.099 214.824,69.841 215.096,69.523C215.384,69.189 215.589,68.796 215.71,68.341C215.831,67.886 215.892,67.394 215.892,66.864Z" style="fill:rgb(47,54,64);fill-rule:nonzero;"/>
            </g>
            <g transform="matrix(1,0,0,1,0,799.094)">
                <rect x="41" y="42" width="10" height="10" style="fill:rgb(217,121,65);fill-rule:nonzero;"/>
            </g>
            <g transform="matrix(1,0,0,1,0,799.094)">
                <rect x="41" y="66" width="10" height="10" style="fill:rgb(217,121,65);fill-rule:nonzero;"/>
            </g>
            <g transform="matrix(1,0,0,1,0,799.094)">
                <rect x="53" y="54" width="10" height="10" style="fill:rgb(217,121,65);fill-rule:nonzero;"/>
            </g>
            <g transform="matrix(1,0,0,1,0,799.094)">
                <rect x="65" y="42" width="10" height="10" style="fill:rgb(217,121,65);fill-rule:nonzero;"/>
            </g>
            <g transform="matrix(1,0,0,1,0,799.094)">
                <rect x="53" y="42" width="10" height="10" style="fill:rgb(217,121,65);fill-rule:nonzero;"/>
            </g>
            <g transform="matrix(1,0,0,1,0,799.094)">
                <rect x="41" y="54" width="10" height="10" style="fill:rgb(217,121,65);fill-rule:nonzero;"/>
            </g>
        </g>
    </g>
</svg>
