<?xml version="1.0" encoding="UTF-8" standalone="no"?>
<!DOCTYPE svg PUBLIC "-//W3C//DTD SVG 1.1//EN" "http://www.w3.org/Graphics/SVG/1.1/DTD/svg11.dtd">
<svg viewBox="0 0 373 77" version="1.1" xmlns="http://www.w3.org/2000/svg" xmlns:xlink="http://www.w3.org/1999/xlink" xml:space="preserve" xmlns:serif="http://www.serif.com/" style="fill-rule:evenodd;clip-rule:evenodd;stroke-linejoin:round;stroke-miterlimit:2;">
    <g transform="matrix(1,0,0,1,-23.2702,-157.943)">
        <g transform="matrix(1.59316,0,0,1,-66.9125,-115)">
            <g transform="matrix(1,0,0,1,-4.26207,0)">
                <g transform="matrix(1,0,0,1,0,0.439492)">
                    <g transform="matrix(0.132505,0,0,0.2111,124.224,268.138)">
                        <g transform="matrix(1.1,0,0,1,-13.4361,0)">
                            <g transform="matrix(72,0,0,72,244.015,128.069)">
                            </g>
                            <text x="134.361px" y="128.069px" style="font-family:'Roboto-Bold', 'Roboto';font-weight:700;font-size:72px;fill:rgb(1,22,30);">H<tspan x="182.28px 219.686px " y="128.069px 128.069px ">et</tspan></text>
                        </g>
                    </g>
                    <g transform="matrix(0.103611,0,0,0.165069,110.462,301.632)">
                        <g transform="matrix(1.1,0,0,1,-9.05714,0)">
                            <g transform="matrix(288,0,0,288,1642.22,156.705)">
                            </g>
                            <text x="90.571px" y="156.705px" style="font-family:'Roboto-Bold', 'Roboto';font-weight:700;font-size:288px;fill:rgb(1,22,30);">G<tspan x="280.407px 374.516px 531.024px 680.36px 750.383px 906.188px 1062.69px 1176.73px 1269.72px 1417.79px 1565.86px " y="156.705px 156.705px 156.705px 156.705px 156.705px 156.705px 156.705px 156.705px 156.705px 156.705px 156.705px ">roeiportaal</tspan></text>
                        </g>
                    </g>
                </g>
                <g>
                    <g transform="matrix(0.11308,0.318957,-0.200205,0.180154,83.8658,312.493)">
                        <path d="M0.684,-52.947C0.684,-52.947 0.684,-97.08 0.684,-97.08C0.684,-98.726 2.038,-100.08 3.684,-100.08C3.722,-100.08 3.76,-100.079 3.798,-100.078C57.268,-98.049 100.151,-53.508 100.151,-0C100.151,47.734 70.053,87.264 23.202,96.402C23.012,96.439 22.82,96.457 22.627,96.457C21.155,96.457 19.89,95.374 19.663,93.92L11.904,51.459C11.662,49.91 12.673,48.42 14.201,48.072C36.903,42.895 50.074,23.285 50.074,0C50.074,-26.16 29.573,-48.137 3.476,-49.954C1.912,-50.063 0.684,-51.38 0.684,-52.947Z" style="fill:rgb(1,22,30);fill-rule:nonzero;"/>
                        <path d="M10.828,96.147C10.852,96.3 10.864,96.455 10.864,96.61C10.864,98.124 9.717,99.413 8.213,99.589C4.341,100.044 3.899,100.15 0,100.15C-54.94,100.15 -100.15,54.941 -100.15,-0C-100.15,-27.388 -88.915,-53.611 -69.088,-72.504C-68.53,-73.035 -67.789,-73.332 -67.019,-73.332C-66.159,-73.332 -65.339,-72.962 -64.77,-72.318L-35.558,-39.236C-34.521,-38.061 -34.57,-36.261 -35.67,-35.145C-44.897,-25.78 -50.075,-13.147 -50.075,-0C-50.075,27.47 -31.19,51.109 -3.719,51.109C-2.297,51.109 -0.875,51.048 0.543,50.927C2.104,50.794 3.521,51.906 3.763,53.454L10.828,96.147Z" style="fill:rgb(1,22,30);fill-rule:nonzero;"/>
                    </g>
                    <g transform="matrix(0.626713,0.0556318,-0.0349193,0.998451,43.528,113.418)">
                        <path d="M97.311,162.271L100.44,164.83L77.173,195.602C76.894,195.982 76.434,196.185 75.966,196.134C75.497,196.084 75.091,195.787 74.901,195.356L73.724,192.694L69.322,202.978C69.036,203.648 68.259,203.959 67.589,203.673C66.92,203.386 66.608,202.609 66.895,201.94L72.49,188.865C72.697,188.382 73.171,188.068 73.696,188.065C74.222,188.061 74.699,188.37 74.911,188.851L76.392,191.2L97.311,162.271ZM97.311,162.271L95.272,160.046L106.385,153.844L103.479,166.055L100.44,164.83L97.311,162.271Z" style="fill:rgb(1,22,30);"/>
                    </g>
                </g>
            </g>
        </g>
    </g>
</svg>
