<?xml version="1.0" encoding="UTF-8" standalone="no"?>
<!DOCTYPE svg PUBLIC "-//W3C//DTD SVG 1.1//EN" "http://www.w3.org/Graphics/SVG/1.1/DTD/svg11.dtd">
<svg width="100%" height="100%" viewBox="0 0 51 51" version="1.1" xmlns="http://www.w3.org/2000/svg" xmlns:xlink="http://www.w3.org/1999/xlink" xml:space="preserve" xmlns:serif="http://www.serif.com/" style="fill-rule:evenodd;clip-rule:evenodd;stroke-linejoin:round;stroke-miterlimit:2;">
    <g transform="matrix(1,0,0,1,-607.503,-819.83)">
        <g id="logo.svg" transform="matrix(0.0202995,0,0,0.0202995,632.685,845.011)">
            <g transform="matrix(1,0,0,1,-1240.5,-1240.5)">
                <clipPath id="_clip1">
                    <rect x="0" y="0" width="2481" height="2481"/>
                </clipPath>
                <g clip-path="url(#_clip1)">
                    <g>
                        <g transform="matrix(19.4443,0,0,19.4445,-11364.4,-8308.52)">
                            <rect x="584.457" y="427.295" width="127.56" height="127.559" style="fill:rgb(0,49,203);"/>
                        </g>
                        <g transform="matrix(19.4443,0,0,19.4445,511.29,1800.45)">
                            <path d="M0,14.232L-1.325,14.232L-1.325,0L0,0L0,4.58C0.725,4.179 1.414,3.892 2.056,3.714C2.697,3.537 3.339,3.448 3.981,3.448C5.139,3.448 6.015,3.74 6.615,4.325C7.215,4.909 7.513,5.775 7.513,6.912L7.513,14.232L6.187,14.232L6.187,7.064C6.187,6.234 5.974,5.629 5.546,5.232C5.118,4.841 4.455,4.643 3.558,4.643C2.989,4.643 2.4,4.726 1.795,4.888C1.19,5.05 0.595,5.29 0.005,5.603L0.005,14.227L0,14.232Z" style="fill:white;fill-rule:nonzero;"/>
                        </g>
                        <g transform="matrix(19.4443,0,0,19.4445,-11364.4,-6911.2)">
                            <path d="M622.804,462.259L621.479,462.259L621.479,451.689L622.804,451.689L622.804,462.259ZM622.866,449.504L621.41,449.504L621.41,448.028L622.866,448.028L622.866,449.504Z" style="fill:white;fill-rule:nonzero;"/>
                        </g>
                        <g transform="matrix(19.4443,0,0,19.4445,899.616,2121.3)">
                            <path d="M0,-11.853C-1.482,-11.853 -2.489,-11.577 -3.005,-11.029C-3.527,-10.481 -3.788,-9.479 -3.788,-8.024C-3.788,-6.568 -3.569,-5.645 -3.125,-5.081C-2.682,-4.518 -1.868,-4.236 -0.683,-4.236C-0.141,-4.236 0.402,-4.309 0.955,-4.46C1.503,-4.612 2.019,-4.826 2.504,-5.112L2.504,-11.577C2.134,-11.66 1.732,-11.728 1.304,-11.78C0.876,-11.832 0.438,-11.853 0,-11.853M-0.407,1.2C-1.106,1.2 -1.758,1.153 -2.363,1.059C-2.969,0.965 -3.464,0.84 -3.85,0.684L-3.85,-0.516C-3.537,-0.386 -3.068,-0.276 -2.447,-0.182C-1.826,-0.088 -1.2,-0.041 -0.574,-0.041C0.584,-0.041 1.383,-0.276 1.836,-0.746C2.285,-1.215 2.509,-2.066 2.509,-3.292L2.509,-4.017C1.982,-3.673 1.409,-3.417 0.798,-3.245C0.183,-3.073 -0.449,-2.989 -1.106,-2.989C-2.536,-2.989 -3.558,-3.386 -4.179,-4.179C-4.8,-4.972 -5.108,-6.25 -5.108,-8.018C-5.108,-9.787 -4.721,-11.123 -3.949,-11.895C-3.177,-12.667 -1.857,-13.053 0.01,-13.053C0.652,-13.053 1.325,-13.011 2.024,-12.933C2.723,-12.855 3.328,-12.756 3.845,-12.646L3.845,-3.636C3.845,-1.836 3.527,-0.584 2.89,0.131C2.254,0.845 1.158,1.2 -0.397,1.2L-0.407,1.2Z" style="fill:white;fill-rule:nonzero;"/>
                        </g>
                        <g transform="matrix(19.4443,0,0,19.4445,1063.55,1800.45)">
                            <path d="M0,14.232L-1.325,14.232L-1.325,0L0,0L0,4.58C0.725,4.179 1.414,3.892 2.056,3.714C2.697,3.537 3.339,3.448 3.981,3.448C5.139,3.448 6.015,3.74 6.615,4.325C7.215,4.909 7.513,5.775 7.513,6.912L7.513,14.232L6.188,14.232L6.188,7.064C6.188,6.234 5.974,5.629 5.546,5.232C5.118,4.841 4.455,4.643 3.558,4.643C2.989,4.643 2.4,4.726 1.795,4.888C1.19,5.05 0.595,5.29 0.005,5.603L0.005,14.227L0,14.232Z" style="fill:white;fill-rule:nonzero;"/>
                        </g>
                        <g transform="matrix(19.4443,0,0,19.4445,1386.44,1848.53)">
                            <path d="M0,10.471L0,11.608C-0.256,11.692 -0.569,11.765 -0.929,11.822C-1.294,11.879 -1.643,11.905 -1.988,11.905C-3.245,11.905 -4.137,11.624 -4.664,11.06C-5.191,10.497 -5.457,9.516 -5.457,8.118L-5.457,2.337L-7.127,2.337L-7.127,1.179L-5.436,1.179L-5.201,-1.429L-4.132,-1.429L-4.132,1.179L-0.13,1.179L-0.13,2.337L-4.132,2.337L-4.132,8.071C-4.132,9.083 -3.955,9.772 -3.595,10.137C-3.24,10.502 -2.619,10.685 -1.732,10.685C-1.445,10.685 -1.137,10.664 -0.803,10.622C-0.47,10.58 -0.198,10.528 0,10.471Z" style="fill:white;fill-rule:nonzero;"/>
                        </g>
                        <g transform="matrix(19.4443,0,0,19.4445,1560.01,1997.94)">
                            <path d="M0,-2.493C-0.016,-3.578 -0.25,-4.35 -0.704,-4.815C-1.163,-5.279 -1.894,-5.508 -2.911,-5.508C-4.08,-5.508 -4.915,-5.237 -5.405,-4.695C-5.895,-4.152 -6.146,-3.234 -6.146,-1.935L-0.047,-1.935C-0.031,-2.018 -0.021,-2.107 -0.016,-2.201C-0.01,-2.295 -0.005,-2.389 -0.005,-2.488L0,-2.493ZM0.772,2.364L0.772,3.496C0.386,3.695 -0.151,3.867 -0.845,4.008C-1.539,4.148 -2.233,4.221 -2.932,4.221C-4.56,4.221 -5.723,3.788 -6.433,2.928C-7.137,2.067 -7.492,0.658 -7.492,-1.298C-7.492,-3.255 -7.132,-4.575 -6.412,-5.43C-5.692,-6.286 -4.523,-6.714 -2.911,-6.714C-1.44,-6.714 -0.386,-6.369 0.256,-5.686C0.897,-5.002 1.221,-3.881 1.221,-2.326C1.221,-2.081 1.216,-1.846 1.2,-1.622C1.184,-1.392 1.158,-1.121 1.116,-0.808L-6.141,-0.808C-6.125,0.549 -5.864,1.524 -5.348,2.114C-4.836,2.708 -3.955,3.001 -2.713,3.001C-2.113,3.001 -1.492,2.938 -0.85,2.818C-0.209,2.698 0.334,2.542 0.777,2.359L0.772,2.364Z" style="fill:white;fill-rule:nonzero;"/>
                        </g>
                        <g transform="matrix(19.4443,0,0,19.4445,1778.52,1904.93)">
                            <path d="M0,7.085L0,8.217C-0.37,8.447 -0.897,8.634 -1.586,8.786C-2.269,8.937 -2.989,9.01 -3.746,9.01C-5.243,9.01 -6.292,8.608 -6.892,7.8C-7.492,6.996 -7.789,5.577 -7.789,3.553C-7.789,1.529 -7.403,0.178 -6.621,-0.662C-5.843,-1.502 -4.528,-1.925 -2.671,-1.925C-2.259,-1.925 -1.889,-1.915 -1.56,-1.894C-1.231,-1.873 -0.803,-1.826 -0.276,-1.753L-0.276,-0.553C-0.976,-0.636 -1.466,-0.689 -1.742,-0.704C-2.019,-0.72 -2.332,-0.725 -2.671,-0.725C-4.111,-0.725 -5.102,-0.412 -5.645,0.214C-6.187,0.84 -6.459,1.957 -6.459,3.553C-6.459,5.149 -6.245,6.292 -5.817,6.892C-5.389,7.492 -4.596,7.789 -3.443,7.789C-2.828,7.789 -2.207,7.722 -1.57,7.586C-0.934,7.45 -0.412,7.283 0.005,7.085L0,7.085Z" style="fill:white;fill-rule:nonzero;"/>
                        </g>
                        <g transform="matrix(19.4443,0,0,19.4445,1851.26,1800.45)">
                            <path d="M0,14.232L-1.325,14.232L-1.325,0L0,0L0,4.58C0.725,4.179 1.414,3.892 2.056,3.714C2.697,3.537 3.339,3.448 3.981,3.448C5.139,3.448 6.015,3.74 6.615,4.325C7.215,4.909 7.513,5.775 7.513,6.912L7.513,14.232L6.187,14.232L6.187,7.064C6.187,6.234 5.974,5.629 5.546,5.232C5.118,4.841 4.455,4.643 3.558,4.643C2.989,4.643 2.4,4.726 1.795,4.888C1.19,5.05 0.595,5.29 0.005,5.603L0.005,14.227L0,14.232Z" style="fill:white;fill-rule:nonzero;"/>
                        </g>
                        <g transform="matrix(19.4443,0,0,19.4445,974.278,977.525)">
                            <path d="M0,-29.122L0,0L-6.876,0L-18.396,-16.815L-18.396,0L-25.131,0L-25.131,-29.122L-18.302,-29.122L-6.735,-11.66L-6.735,-29.122L0,-29.122Z" style="fill:white;fill-rule:nonzero;"/>
                        </g>
                        <g transform="matrix(19.4443,0,0,19.4445,1360.78,705.55)">
                            <path d="M0,-1.158L9.662,13.982L0.882,13.982L-4.784,4.69L-10.22,13.982L-18.114,13.982L-8.546,-0.882L-17.556,-15.14L-8.775,-15.14L-3.897,-6.824L1.028,-15.14L8.692,-15.14L0.005,-1.158L0,-1.158Z" style="fill:white;fill-rule:nonzero;"/>
                        </g>
                        <g transform="matrix(19.4443,0,0,19.4445,1996.52,977.525)">
                            <path d="M0,-29.122L0,-22.621L-7.94,-22.621L-7.94,0L-15.14,0L-15.14,-22.621L-23.081,-22.621L-23.081,-29.122L0.005,-29.122L0,-29.122Z" style="fill:white;fill-rule:nonzero;"/>
                        </g>
                        <g transform="matrix(19.4443,0,0,19.4445,866.749,1349.51)">
                            <path d="M0,5.348L-7.57,5.348L-7.57,1.863L3.715,1.863L3.715,15.892C2.849,16.294 1.299,16.69 -0.929,17.076C-3.156,17.462 -5.186,17.655 -7.012,17.655C-11.812,17.655 -15.135,16.523 -16.977,14.264C-18.818,12.005 -19.742,8.15 -19.742,2.698C-19.742,-2.441 -18.641,-6.229 -16.444,-8.66C-14.248,-11.091 -10.794,-12.307 -6.088,-12.307C-4.476,-12.307 -2.937,-12.265 -1.466,-12.192C0.005,-12.114 1.205,-11.999 2.134,-11.842L2.134,-8.357C0.897,-8.483 -0.443,-8.571 -1.883,-8.634C-3.323,-8.696 -4.727,-8.728 -6.088,-8.728C-9.62,-8.728 -12.104,-7.862 -13.544,-6.124C-14.984,-4.392 -15.704,-1.45 -15.704,2.698C-15.704,4.743 -15.589,6.454 -15.354,7.831C-15.119,9.209 -14.744,10.315 -14.217,11.155C-13.596,12.209 -12.714,12.96 -11.572,13.408C-10.424,13.857 -8.754,14.081 -6.558,14.081C-5.692,14.081 -4.669,14.014 -3.49,13.873C-2.316,13.732 -1.153,13.539 -0.005,13.294L-0.005,5.353L0,5.348Z" style="fill:white;fill-rule:nonzero;"/>
                        </g>
                        <g transform="matrix(19.4443,0,0,19.4445,1421.24,1191.59)">
                            <path d="M0,21.692L0,25.407L-19.319,25.407L-19.319,-3.715L-0.417,-3.715L-0.417,-0.136L-15.375,-0.136L-15.375,8.78L-2.139,8.78L-2.139,12.265L-15.375,12.265L-15.375,21.692L0,21.692Z" style="fill:white;fill-rule:nonzero;"/>
                        </g>
                        <g transform="matrix(19.4443,0,0,19.4445,1981.21,1685.61)">
                            <path d="M0,-29.122L0,0L-3.996,0L-20.112,-22.663L-20.112,0L-23.827,0L-23.827,-29.122L-19.83,-29.122L-3.715,-6.13L-3.715,-29.122L0,-29.122Z" style="fill:white;fill-rule:nonzero;"/>
                        </g>
                    </g>
                </g>
            </g>
        </g>
    </g>
</svg>
